<svg xmlns="http://www.w3.org/2000/svg" viewBox="0 0 205 19.79"><defs><style>.cls-1{fill:#424242;}</style></defs><title>logo-g</title><g id="Layer_2" data-name="Layer 2"><g id="Layer_1-2" data-name="Layer 1"><path class="cls-1" d="M0,.29H4.33V19.51H0Zm4.88,9.4L10.07.29H15l-5.4,9.4,5.8,9.82H10.47Z"/><path class="cls-1" d="M33.52,19.51H29l-1-3.76H21.55l-1,3.76H16L21.87.29h5.77Zm-11-7.36H27l-2.2-8Z"/><path class="cls-1" d="M42.23,13.53H39.69v6H35.36V.29h8c4.68,0,6.41,1.85,6.41,5.45V8.11c0,2.39-.87,4-2.8,4.82l4.65,6.58H46.47Zm3.2-7.38c0-1.45-.55-2-2.31-2H39.69V9.78h3.43c1.85,0,2.31-.66,2.31-2.1Z"/><path class="cls-1" d="M60.8,4.13V19.51H56.47V4.13H51.3V.29H66V4.13Z"/><path class="cls-1" d="M68.52,19.51V.29H80.61V4.13H72.85V7.65H80v3.83H72.85v4.19h7.76v3.84Z"/><path class="cls-1" d="M88.22,6.87V19.51H84.1V.29h5.31l6.32,13.24V.29h4.12V19.51H94.51Z"/><path class="cls-1" d="M123.35,19.51h-7.44V.29h7.44c4.73,0,6.49,2.39,6.49,5v9.23C129.84,17.08,128.08,19.51,123.35,19.51Zm2.17-13c0-1.5-.52-2.33-2.69-2.33h-2.59V15.67h2.59c2.17,0,2.69-.84,2.69-2.34Z"/><path class="cls-1" d="M133.19,19.51V.29h12.09V4.13h-7.76V7.65h7.15v3.83h-7.15v4.19h7.76v3.84Z"/><path class="cls-1" d="M154.14,19.79a15.86,15.86,0,0,1-6.21-1.24l.72-3.34a18.53,18.53,0,0,0,5.54.92c2.23,0,2.66-.43,2.66-2s-.09-1.93-3.23-2.62c-4.65-1-5.34-1.94-5.34-6.09,0-3.84,1.35-5.37,6.64-5.37a28,28,0,0,1,5.82.63l-.43,3.64A29.85,29.85,0,0,0,155,3.72c-1.93,0-2.36.35-2.36,1.76,0,1.85.08,1.88,3.11,2.6,5.2,1.24,5.46,2.25,5.46,6S159.94,19.79,154.14,19.79Z"/><path class="cls-1" d="M164.64,19.51V.29H169V19.51Z"/><path class="cls-1" d="M179.29,19.79c-4.67,0-7-2.39-7-5.88v-8c0-3.55,2.37-5.89,7-5.89a33.91,33.91,0,0,1,6.15.61l-.52,3.78a45.09,45.09,0,0,0-5.63-.47c-2.16,0-2.71,1.13-2.71,2.63v6.61c0,1.5.55,2.74,2.71,2.74a17.87,17.87,0,0,0,2.57-.17V9.84h4.07v9A24.3,24.3,0,0,1,179.29,19.79Z"/><path class="cls-1" d="M193.37,6.87V19.51h-4.12V.29h5.3l6.32,13.24V.29H205V19.51h-5.34Z"/><circle class="cls-1" cx="107.9" cy="14.67" r="2.59"/><circle class="cls-1" cx="107.9" cy="5.64" r="2.59"/></g></g></svg>