<svg xmlns="http://www.w3.org/2000/svg" width="19" height="18" viewBox="0 0 19 18">
    <g fill="#7F7F7F" fill-rule="evenodd">
        <path d="M4.402 6.324v11.614H.535V6.323zM4.648 2.738c.008.57-.19 1.047-.592 1.43-.402.383-.931.574-1.588.574h-.023c-.64 0-1.156-.191-1.547-.574-.39-.383-.586-.86-.586-1.43 0-.578.201-1.056.604-1.435.402-.38.927-.569 1.576-.569.648 0 1.168.19 1.558.569.391.379.59.857.598 1.435zM10.39 7.974c.149-.234.301-.44.457-.619.164-.187.385-.39.662-.609a3.044 3.044 0 0 1 1.02-.51c.402-.12.85-.181 1.342-.181 1.336 0 2.41.443 3.222 1.33.813.886 1.22 2.185 1.22 3.896v6.656h-3.856v-6.21c0-.82-.159-1.463-.475-1.928-.316-.465-.81-.697-1.482-.697-.493 0-.905.134-1.237.404-.332.27-.58.603-.744 1.002-.086.234-.129.55-.129.949v6.48H6.535c.015-3.117.023-5.644.023-7.582 0-1.937-.004-3.093-.012-3.468l-.011-.563h3.855v1.65z"/>
    </g>
</svg>
