<svg xmlns="http://www.w3.org/2000/svg" width="51" height="25" viewBox="0 0 51 25">
  <g fill="none">
    <path fill="#424242" d="M0 .3625L5.4125.3625 5.4125 24.3875 0 24.3875 0 .3625zM6.1 12.1125L12.5875.3625 18.75.3625 12 12.1125 19.25 24.3875 13.0875 24.3875 6.1 12.1125zM42.1875 24.3875L32.8875 24.3875 32.8875.3625 42.1875.3625C48.1.3625 50.3 3.35 50.3 6.6125L50.3 18.15C50.3 21.35 48.1 24.3875 42.1875 24.3875zM44.9 8.1375C44.9 6.2625 44.25 5.225 41.5375 5.225L38.3 5.225 38.3 19.5875 41.5375 19.5875C44.25 19.5875 44.9 18.5375 44.9 16.6625L44.9 8.1375z"/>
    <circle cx="24.875" cy="18.337" r="3.237" fill="#F47F20"/>
    <circle cx="24.875" cy="7.05" r="3.237" fill="#F47F20"/>
  </g>
</svg>
