<svg xmlns="http://www.w3.org/2000/svg" width="21" height="17" viewBox="0 0 21 17">
    <path fill="#7F7F7F" fill-rule="evenodd" d="M20.188 1.947a8.67 8.67 0 0 1-2.075 2.14 11.754 11.754 0 0 1-.474 3.862 12.013 12.013 0 0 1-1.48 3.183 12.513 12.513 0 0 1-2.363 2.696c-.914.782-2.015 1.405-3.305 1.87-1.29.466-2.668.698-4.137.698-2.315 0-4.433-.619-6.354-1.857.299.034.632.051 1 .051 1.92 0 3.633-.589 5.136-1.767a4.034 4.034 0 0 1-2.408-.827 4.047 4.047 0 0 1-1.46-2.043c.281.043.542.064.78.064.368 0 .73-.047 1.09-.14A4.07 4.07 0 0 1 1.76 8.447 3.997 3.997 0 0 1 .82 5.816v-.052c.58.325 1.204.5 1.87.526a4.133 4.133 0 0 1-1.345-1.474 4.031 4.031 0 0 1-.5-1.972c0-.752.188-1.448.564-2.088A11.729 11.729 0 0 0 5.182 3.81 11.529 11.529 0 0 0 9.94 5.085a4.596 4.596 0 0 1-.102-.947c0-1.145.403-2.12 1.21-2.927C11.855.404 12.831 0 13.975 0 15.171 0 16.18.436 17 1.307a8.113 8.113 0 0 0 2.626-1c-.316.983-.923 1.743-1.82 2.28a8.244 8.244 0 0 0 2.383-.64z"/>
</svg>
